<svg width="32" height="32" viewBox="0 0 32 32" fill="none" xmlns="http://www.w3.org/2000/svg">
<path fill-rule="evenodd" clip-rule="evenodd" d="M18.2188 3.87672C16.8752 2.98099 15.1248 2.98099 13.7812 3.87672L4.44787 10.0989C3.33508 10.8408 2.66667 12.0897 2.66667 13.4271V25.3333C2.66667 27.5425 4.45753 29.3333 6.66667 29.3333H12C12.7364 29.3333 13.3333 28.7364 13.3333 28V21.3333C13.3333 20.5969 13.9303 20 14.6667 20H17.3333C18.0697 20 18.6667 20.5969 18.6667 21.3333V28C18.6667 28.7364 19.2636 29.3333 20 29.3333H25.3333C27.5425 29.3333 29.3333 27.5425 29.3333 25.3333V13.4271C29.3333 12.0897 28.6649 10.8408 27.5521 10.0989L18.2188 3.87672Z" fill="black"/>
</svg>
