<svg width="32" height="32" viewBox="0 0 32 32" fill="none" xmlns="http://www.w3.org/2000/svg">
<path fill-rule="evenodd" clip-rule="evenodd" d="M16 2.66666C8.6362 2.66666 2.66666 8.63619 2.66666 16C2.66666 23.3638 8.6362 29.3333 16 29.3333C23.3638 29.3333 29.3333 23.3638 29.3333 16C29.3333 8.63619 23.3638 2.66666 16 2.66666ZM16 6.66666C13.0545 6.66666 10.6667 9.05447 10.6667 12C10.6667 14.9455 13.0545 17.3333 16 17.3333C18.9455 17.3333 21.3333 14.9455 21.3333 12C21.3333 9.05447 18.9455 6.66666 16 6.66666ZM7.42781 23.3324C9.20702 20.2566 11.9398 18 16 18C20.0601 18 22.7929 20.2566 24.5722 23.3324C24.8108 23.7449 24.8111 24.2534 24.573 24.6662C24.3349 25.079 23.8946 25.3333 23.418 25.3333H8.58195C8.10539 25.3333 7.66507 25.079 7.42697 24.6662C7.18886 24.2534 7.18918 23.7449 7.42781 23.3324Z" fill="black"/>
</svg>
